<?xml version="1.0" standalone="no"?>
<!DOCTYPE svg PUBLIC "-//W3C//DTD SVG 20010904//EN"
 "http://www.w3.org/TR/2001/REC-SVG-20010904/DTD/svg10.dtd">
<svg version="1.0" xmlns="http://www.w3.org/2000/svg"
 width="577.000000pt" height="577.000000pt" viewBox="0 0 577.000000 577.000000"
 preserveAspectRatio="xMidYMid meet">
<metadata>
Created by potrace 1.14, written by Peter Selinger 2001-2017
</metadata>
<g transform="translate(0.000000,577.000000) scale(0.100000,-0.100000)"
fill="#000000" stroke="none">
<path d="M2750 4219 c-60 -7 -94 -12 -145 -23 -173 -37 -305 -93 -470 -199
-63 -40 -186 -144 -222 -187 l-21 -26 81 0 c176 0 303 -25 407 -80 141 -74
237 -206 266 -364 3 -19 8 -73 10 -120 6 -118 15 -200 24 -200 3 0 3 26 -1 58
-9 63 13 158 52 220 30 50 88 69 142 47 16 -7 17 4 17 153 0 89 5 173 11 189
12 34 58 83 76 83 19 0 16 23 -12 84 -36 78 -38 166 -5 201 25 26 60 32 103
16 25 -10 48 -52 119 -211 l33 -75 255 -2 c162 -1 288 -7 345 -16 50 -8 91
-14 92 -13 5 4 -95 103 -152 152 -137 117 -360 236 -502 269 -10 2 -45 11 -78
19 -124 29 -298 40 -425 25z"/>
<path d="M1360 3632 c-7 -3 -10 -239 -10 -748 l0 -744 130 0 c117 0 130 2 131
18 0 9 1 139 2 287 l2 270 125 3 125 2 61 -82 c33 -46 127 -176 210 -290 l149
-208 172 0 173 0 -78 107 c-42 59 -102 141 -132 184 -100 141 -189 264 -212
293 -13 16 -23 31 -23 33 0 1 32 18 70 36 155 75 242 211 249 390 9 238 -101
385 -324 433 -61 14 -144 17 -442 18 -202 1 -372 0 -378 -2z m741 -269 c92
-42 123 -86 125 -178 4 -118 -65 -188 -207 -211 -19 -3 -118 -7 -220 -9 l-186
-3 0 215 0 215 221 -4 c198 -4 226 -6 267 -25z"/>
<path d="M1764 3183 c0 -32 4 -61 9 -64 9 -7 196 -3 227 4 57 14 71 21 76 43
4 13 1 31 -6 38 -17 22 -100 36 -209 36 l-97 0 0 -57z"/>
<path d="M3040 2887 l0 -749 343 5 c362 5 390 7 504 37 293 79 459 262 520
577 10 49 10 275 1 328 -47 264 -232 447 -520 515 -124 29 -183 33 -531 34
l-317 1 0 -748z m775 475 c162 -56 264 -153 314 -297 62 -181 8 -422 -122
-541 -116 -106 -233 -138 -511 -138 l-190 -1 1 485 c1 267 2 493 2 504 1 17
12 18 224 14 192 -4 230 -8 282 -26z"/>
<path d="M3459 3228 c-6 -129 -2 -689 6 -691 15 -6 174 0 228 7 170 24 266
104 300 253 48 208 -52 380 -249 426 -83 20 -284 23 -285 5z"/>
<path d="M2798 3323 c12 -2 32 -2 45 0 12 2 2 4 -23 4 -25 0 -35 -2 -22 -4z"/>
<path d="M2805 3121 c-24 -10 -47 -37 -63 -73 -18 -43 1 -32 21 11 20 44 62
67 104 57 21 -5 24 -4 13 4 -18 12 -47 12 -75 1z"/>
<path d="M2735 2999 c-4 -6 -5 -12 -2 -15 2 -3 7 2 10 11 7 17 1 20 -8 4z"/>
<path d="M2680 2981 c0 -5 7 -41 15 -79 8 -38 15 -86 17 -106 1 -21 5 -39 9
-42 4 -2 5 11 3 28 -13 103 -44 241 -44 199z"/>
<path d="M2623 2919 c-18 -5 -34 -13 -37 -18 -6 -9 59 11 70 22 8 8 9 8 -33
-4z"/>
<path d="M2615 2890 c-8 -13 5 -13 25 0 13 8 13 10 -2 10 -9 0 -20 -4 -23 -10z"/>
<path d="M2625 2865 c-25 -12 -26 -14 -5 -9 28 7 60 23 45 23 -5 0 -23 -6 -40
-14z"/>
<path d="M2760 2865 c0 -32 110 -158 125 -143 2 2 -9 12 -25 23 -16 10 -45 44
-64 73 -20 30 -36 51 -36 47z"/>
<path d="M2530 2815 c0 -3 9 -23 20 -45 24 -48 24 -47 3 -53 -15 -4 -14 -5 3
-6 13 -1 27 -16 42 -46 22 -45 71 -81 98 -71 12 5 54 -29 54 -44 0 -3 -27 -25
-61 -49 -33 -23 -58 -45 -55 -48 3 -3 13 3 23 13 26 25 105 74 113 69 15 -10
60 -13 60 -4 0 5 -13 9 -29 9 -38 0 -71 40 -71 86 0 19 -4 34 -10 34 -5 0 -7
-6 -4 -13 2 -7 -2 -21 -10 -32 -13 -19 -16 -19 -49 -3 -29 14 -40 29 -71 103
-20 48 -36 91 -36 96 0 5 -4 9 -10 9 -5 0 -10 -2 -10 -5z"/>
<path d="M2415 2710 c-3 -5 -1 -10 4 -10 6 0 11 5 11 10 0 6 -2 10 -4 10 -3 0
-8 -4 -11 -10z"/>
<path d="M2490 2695 c-14 -8 -20 -14 -15 -14 6 0 21 6 35 14 14 8 21 14 15 14
-5 0 -21 -6 -35 -14z"/>
<path d="M1767 2563 c-2 -5 -4 -105 -3 -224 l1 -216 45 -59 c43 -57 164 -183
225 -234 99 -84 258 -172 403 -224 81 -29 103 -32 97 -13 -2 6 -6 48 -9 92 -4
44 -19 130 -34 190 l-28 110 -108 3 c-89 2 -115 6 -145 23 -26 15 -89 95 -229
290 -107 148 -198 269 -202 269 -5 0 -11 -3 -13 -7z"/>
<path d="M2860 2544 c-14 -7 -21 -14 -16 -14 4 0 -8 -18 -28 -40 -35 -39 -87
-132 -100 -180 -4 -14 10 11 32 55 22 45 62 105 91 138 29 31 51 57 50 56 -2
-1 -15 -7 -29 -15z"/>
<path d="M2843 2407 c-40 -70 -79 -177 -65 -177 4 0 13 23 19 51 7 28 31 83
53 121 22 39 39 72 37 74 -2 2 -22 -29 -44 -69z"/>
<path d="M2772 2200 c0 -14 2 -19 5 -12 2 6 2 18 0 25 -3 6 -5 1 -5 -13z"/>
<path d="M2781 2114 c0 -11 3 -14 6 -6 3 7 2 16 -1 19 -3 4 -6 -2 -5 -13z"/>
<path d="M3860 2020 c-34 -8 -81 -15 -185 -26 -27 -2 -148 -6 -268 -6 -137 -2
-221 -6 -226 -13 -5 -5 -21 -41 -36 -80 -25 -63 -28 -83 -30 -211 l-2 -140 85
23 c183 49 303 102 445 197 88 59 217 173 261 230 30 40 26 42 -44 26z"/>
<path d="M2820 1954 c0 -20 53 -83 102 -122 19 -15 81 -34 73 -23 -2 5 -17 11
-32 15 -33 7 -80 48 -117 102 -14 21 -26 34 -26 28z"/>
<path d="M2709 1835 c-3 -3 -39 -9 -80 -14 -70 -8 -71 -8 -19 -9 30 0 69 3 85
7 28 6 108 -1 165 -14 14 -3 8 1 -12 9 -41 16 -131 30 -139 21z"/>
<path d="M3040 1820 c-9 -6 -10 -10 -3 -10 6 0 15 5 18 10 8 12 4 12 -15 0z"/>
<path d="M2616 1760 c14 -14 86 -32 78 -19 -3 5 -14 9 -25 9 -11 0 -30 5 -42
11 -17 9 -19 9 -11 -1z"/>
<path d="M2828 1753 c7 -3 16 -2 19 1 4 3 -2 6 -13 5 -11 0 -14 -3 -6 -6z"/>
<path d="M2716 1738 c3 -5 10 -6 15 -3 13 9 11 12 -6 12 -8 0 -12 -4 -9 -9z"/>
<path d="M2758 1743 c7 -3 16 -2 19 1 4 3 -2 6 -13 5 -11 0 -14 -3 -6 -6z"/>
</g>
</svg>
